{"title":"Doomsday.2008.MULTiSUBS.DVDRip.XviD-Cocc","uid":4434946,"size":735409174,"categoryP":"video","categoryS":"movies","magnet":"?xt=urn:btih:7d7e7f6faa1702c198d9c4a18c1f4ad0136e2776&amp;dn=Doomsday.2008.MULTiSUBS.DVDRip.XviD-Cocc&amp;tr=udp%3A%2F%2Ftracker.openbittorrent.com%3A80&amp;tr=udp%3A%2F%2Fopen.demonii.com%3A1337&amp;tr=udp%3A%2F%2Ftracker.coppersurfer.tk%3A6969&amp;tr=udp%3A%2F%2Fexodus.desync.com%3A6969","seeders":0,"leechers":0,"uploader":"Cocc","files":2,"time":1223491020,"description":"            Doomsday (2008)\n\nA lethal virus spreads throughout the British isles,infecting \nmillions and killing hundreds of thousands. To contain the \nthreat, acting authorities brutally quarantine the country as \nit succumbs to fear and chaos. The quarantine is successful. \nThree decades later, the Reaper virus violently resurfaces in \na major city. An elite group of specialists, including Eden \nSinclair, is urgently dispatched into the still-quarantined \ncountry to retrieve a cure by any means necessary. Shut off \nfrom the rest of the world, the unit must battle through a \nandscape that has become a waking nightmare. \n\n\nSubtitles; Da,Sv,No,Fi\n\nIMDb http://www.imdb.com/title/tt0483607/\n\n\n\nGeneral\nComplete name                    : Doomsday.2008.MULTiSUBS.DVDRip.XviD-Cocc.avi\nFormat                           : AVI\nFormat/Info                      : Audio Video Interleave\nFile size                        : 699 MiB\nDuration                         : 1h 48mn\nOverall bit rate                 : 904 Kbps\n\nVideo\nFormat                           : MPEG-4 Visual\nFormat profile                   : Streaming Video@L1\nFormat settings, BVOP            : Yes\nFormat settings, QPel            : No\nFormat settings, GMC             : No warppoints\nFormat settings, Matrix          : Default\nCodec ID                         : XVID\nCodec ID/Hint                    : XviD\nDuration                         : 1h 48mn\nBit rate                         : 744 Kbps\nWidth                            : 640 pixels\nHeight                           : 272 pixels\nDisplay aspect ratio             : 2.35\nFrame rate                       : 25.000 fps\nResolution                       : 24 bits\nColorimetry                      : 4:2:0\nScan type                        : Progressive\nBits/(Pixel*Frame)               : 0.171\nStream size                      : 576 MiB (82%)\nWriting library                  : XviD 1.1.2 (UTC 2006-11-01)\n\nAudio\nFormat                           : MPEG Audio\nFormat version                   : Version 1\nFormat profile                   : Layer 3\nCodec ID                         : 55\nCodec ID/Hint                    : MP3\nDuration                         : 1h 48mn\nBit rate mode                    : Variable\nBit rate                         : 146 Kbps\nMinimum bit rate                 : 128 Kbps\nChannel(s)                       : 2 channels\nSampling rate                    : 48.0 KHz\nResolution                       : 16 bits\nStream size                      : 113 MiB (16%)\nAlignment                        : Aligned on interleaves\nInterleave, duration             : 24 ms (0.60 video frame)\nInterleave, preload duration     : 120 ms\nWriting library                  : LAME3.92 \nEncoding settings                : VBR (rh)\n\nCreated with: DP MediaInfo version 1.05 (c) by Dirk Paehl\nMediaInfoLib - v0.7.7.6\n","torrent":{"xt":"urn:btih:7d7e7f6faa1702c198d9c4a18c1f4ad0136e2776","amp;dn":"Doomsday.2008.MULTiSUBS.DVDRip.XviD-Cocc","amp;tr":["udp%3A%2F%2Ftracker.openbittorrent.com%3A80","udp%3A%2F%2Fopen.demonii.com%3A1337","udp%3A%2F%2Ftracker.coppersurfer.tk%3A6969","udp%3A%2F%2Fexodus.desync.com%3A6969"],"infoHash":"7d7e7f6faa1702c198d9c4a18c1f4ad0136e2776","infoHashBuffer":{"type":"Buffer","data":[125,126,127,111,170,23,2,193,152,217,196,161,140,31,74,208,19,110,39,118]},"announce":[],"urlList":[]}}